<svg width="20" height="20" viewBox="0 0 20 20" fill="none" xmlns="http://www.w3.org/2000/svg">
<g opacity="0.7">
<path d="M5.83203 15C4.30792 15.3431 3.33203 15.8703 3.33203 16.4614C3.33203 17.4953 6.3168 18.3333 9.9987 18.3333C13.6806 18.3333 16.6654 17.4953 16.6654 16.4614C16.6654 15.8703 15.6894 15.3431 14.1654 15" stroke="#273F2B" stroke-width="1.5" stroke-linecap="round"/>
<path d="M12.0846 7.49935C12.0846 8.64993 11.1519 9.58268 10.0013 9.58268C8.85072 9.58268 7.91797 8.64993 7.91797 7.49935C7.91797 6.34876 8.85072 5.41602 10.0013 5.41602C11.1519 5.41602 12.0846 6.34876 12.0846 7.49935Z" stroke="#273F2B" stroke-width="1.5"/>
<path d="M11.0491 14.5773C10.7681 14.848 10.3924 14.9993 10.0015 14.9993C9.61047 14.9993 9.2348 14.848 8.95372 14.5773C6.37989 12.0833 2.93063 9.29727 4.61273 5.25246C5.52222 3.06545 7.70542 1.66602 10.0015 1.66602C12.2975 1.66602 14.4806 3.06546 15.3901 5.25246C17.0701 9.29218 13.6293 12.0919 11.0491 14.5773Z" stroke="#273F2B" stroke-width="1.5"/>
</g>
</svg>
