<svg width="20" height="20" viewBox="0 0 20 20" fill="none" xmlns="http://www.w3.org/2000/svg">
<g id="settings-01" clip-path="url(#clip0_3137_3584)">
<g id="Icon">
<path d="M10 12.5003C11.3807 12.5003 12.5 11.381 12.5 10.0003C12.5 8.61961 11.3807 7.50033 10 7.50033C8.61931 7.50033 7.50002 8.61961 7.50002 10.0003C7.50002 11.381 8.61931 12.5003 10 12.5003Z" stroke="#667085" stroke-width="1.66667" stroke-linecap="round" stroke-linejoin="round"/>
<path d="M15.6061 12.2731C15.5052 12.5016 15.4752 12.755 15.5197 13.0008C15.5643 13.2465 15.6814 13.4733 15.8561 13.6518L15.9015 13.6973C16.0424 13.838 16.1542 14.0051 16.2304 14.1891C16.3067 14.373 16.3459 14.5702 16.3459 14.7693C16.3459 14.9684 16.3067 15.1655 16.2304 15.3495C16.1542 15.5334 16.0424 15.7005 15.9015 15.8412C15.7608 15.9821 15.5937 16.0939 15.4098 16.1701C15.2258 16.2464 15.0287 16.2856 14.8296 16.2856C14.6305 16.2856 14.4333 16.2464 14.2494 16.1701C14.0654 16.0939 13.8983 15.9821 13.7576 15.8412L13.7121 15.7958C13.5336 15.6211 13.3068 15.504 13.0611 15.4594C12.8153 15.4149 12.5619 15.4449 12.3334 15.5458C12.1093 15.6418 11.9182 15.8013 11.7836 16.0045C11.649 16.2078 11.5768 16.4459 11.5758 16.6897V16.8185C11.5758 17.2204 11.4161 17.6057 11.132 17.8899C10.8479 18.174 10.4625 18.3337 10.0606 18.3337C9.65878 18.3337 9.2734 18.174 8.98925 17.8899C8.70511 17.6057 8.54548 17.2204 8.54548 16.8185V16.7503C8.53961 16.4996 8.45844 16.2564 8.31253 16.0524C8.16661 15.8484 7.9627 15.693 7.72729 15.6064C7.4988 15.5055 7.24533 15.4755 6.99957 15.52C6.75382 15.5646 6.52705 15.6817 6.34851 15.8564L6.30305 15.9018C6.16233 16.0427 5.99523 16.1545 5.81129 16.2307C5.62736 16.307 5.4302 16.3462 5.23108 16.3462C5.03197 16.3462 4.83481 16.307 4.65087 16.2307C4.46693 16.1545 4.29983 16.0427 4.15911 15.9018C4.01824 15.7611 3.90648 15.594 3.83023 15.4101C3.75398 15.2261 3.71474 15.029 3.71474 14.8299C3.71474 14.6308 3.75398 14.4336 3.83023 14.2497C3.90648 14.0657 4.01824 13.8986 4.15911 13.7579L4.20457 13.7124C4.37922 13.5339 4.49637 13.3071 4.54093 13.0614C4.58549 12.8156 4.55541 12.5622 4.45457 12.3337C4.35853 12.1096 4.19908 11.9185 3.99583 11.7839C3.79258 11.6493 3.5544 11.5771 3.31063 11.5761H3.18184C2.78 11.5761 2.39461 11.4165 2.11046 11.1323C1.82632 10.8482 1.66669 10.4628 1.66669 10.0609C1.66669 9.65909 1.82632 9.2737 2.11046 8.98956C2.39461 8.70541 2.78 8.54578 3.18184 8.54578H3.25002C3.50077 8.53991 3.74396 8.45875 3.94797 8.31283C4.15199 8.16692 4.30738 7.963 4.39396 7.7276C4.4948 7.4991 4.52489 7.24563 4.48033 6.99988C4.43577 6.75413 4.31861 6.52736 4.14396 6.34881L4.09851 6.30336C3.95763 6.16264 3.84588 5.99554 3.76963 5.8116C3.69338 5.62766 3.65413 5.4305 3.65413 5.23139C3.65413 5.03227 3.69338 4.83511 3.76963 4.65117C3.84588 4.46724 3.95763 4.30013 4.09851 4.15942C4.23922 4.01854 4.40633 3.90679 4.59026 3.83054C4.7742 3.75429 4.97136 3.71504 5.17048 3.71504C5.36959 3.71504 5.56675 3.75429 5.75069 3.83054C5.93462 3.90679 6.10173 4.01854 6.24244 4.15942L6.2879 4.20487C6.46644 4.37952 6.69321 4.49668 6.93897 4.54124C7.18472 4.5858 7.43819 4.55572 7.66669 4.45487H7.72729C7.95136 4.35884 8.14246 4.19938 8.27706 3.99613C8.41166 3.79288 8.4839 3.55471 8.48487 3.31093V3.18214C8.48487 2.7803 8.6445 2.39492 8.92865 2.11077C9.21279 1.82662 9.59818 1.66699 10 1.66699C10.4019 1.66699 10.7872 1.82662 11.0714 2.11077C11.3555 2.39492 11.5152 2.7803 11.5152 3.18214V3.25033C11.5161 3.4941 11.5884 3.73228 11.723 3.93553C11.8576 4.13878 12.0487 4.29823 12.2727 4.39427C12.5012 4.49511 12.7547 4.52519 13.0005 4.48063C13.2462 4.43607 13.473 4.31891 13.6515 4.14427L13.697 4.09881C13.8377 3.95794 14.0048 3.84618 14.1887 3.76993C14.3727 3.69368 14.5698 3.65444 14.769 3.65444C14.9681 3.65444 15.1652 3.69368 15.3492 3.76993C15.5331 3.84618 15.7002 3.95794 15.8409 4.09881C15.9818 4.23953 16.0936 4.40663 16.1698 4.59057C16.2461 4.7745 16.2853 4.97167 16.2853 5.17078C16.2853 5.36989 16.2461 5.56706 16.1698 5.75099C16.0936 5.93493 15.9818 6.10203 15.8409 6.24275L15.7955 6.2882C15.6208 6.46675 15.5037 6.69352 15.4591 6.93927C15.4145 7.18503 15.4446 7.4385 15.5455 7.66699V7.7276C15.6415 7.95167 15.801 8.14276 16.0042 8.27737C16.2075 8.41197 16.4456 8.4842 16.6894 8.48517H16.8182C17.22 8.48517 17.6054 8.64481 17.8896 8.92895C18.1737 9.2131 18.3334 9.59848 18.3334 10.0003C18.3334 10.4022 18.1737 10.7876 17.8896 11.0717C17.6054 11.3558 17.22 11.5155 16.8182 11.5155H16.75C16.5062 11.5164 16.2681 11.5887 16.0648 11.7233C15.8616 11.8579 15.7021 12.049 15.6061 12.2731Z" stroke="#667085" stroke-width="1.66667" stroke-linecap="round" stroke-linejoin="round"/>
</g>
</g>
<defs>
<clipPath id="clip0_3137_3584">
<rect width="20" height="20" fill="white"/>
</clipPath>
</defs>
</svg>
