<svg width="16" height="16" viewBox="0 0 16 16" fill="none" xmlns="http://www.w3.org/2000/svg">
<g id="star">
<path id="Vector" d="M9.15238 2.29579L10.3256 4.66159C10.4856 4.99092 10.9122 5.30681 11.2722 5.36729L13.3986 5.72351C14.7585 5.95203 15.0784 6.94674 14.0985 7.92801L12.4454 9.59481C12.1654 9.87707 12.0121 10.4215 12.0987 10.8113L12.5721 12.8747C12.9453 14.5079 12.0854 15.1397 10.6522 14.2861L8.65912 13.0965C8.29918 12.8814 7.70592 12.8814 7.33925 13.0965L5.34616 14.2861C3.91965 15.1397 3.05308 14.5011 3.42638 12.8747L3.89966 10.8113C3.98631 10.4215 3.833 9.87707 3.55302 9.59481L1.89988 7.92801C0.926651 6.94674 1.23995 5.95203 2.5998 5.72351L4.72623 5.36729C5.07952 5.30681 5.50614 4.99092 5.66612 4.66159L6.83932 2.29579C7.47925 1.01208 8.51912 1.01208 9.15238 2.29579Z" stroke="#4B4B4B" stroke-width="1.5" stroke-linecap="round" stroke-linejoin="round"/>
</g>
</svg>
