<svg width="176" height="32" viewBox="0 0 176 32" fill="none" xmlns="http://www.w3.org/2000/svg">
<g id="Asset 1 1" clip-path="url(#clip0_3137_3519)">
<g id="Layer 2">
<g id="Layer 3">
<path id="Vector" d="M54.8229 16.0373C55.4167 16.3956 55.9137 16.895 56.2703 17.4916C56.6233 18.072 56.8089 18.7396 56.8063 19.4199V29.4303H53.9572V19.4953C53.9626 19.1719 53.9019 18.8509 53.7788 18.5521C53.6557 18.2533 53.4728 17.9831 53.2415 17.7582C53.0235 17.5285 52.761 17.3462 52.4701 17.2226C52.1792 17.0989 51.8661 17.0365 51.5503 17.0391H41.0971V29.4276H38.0415V2.48535H49.3176C51.0258 2.48535 52.4678 2.77442 53.6436 3.35255C54.7405 3.8598 55.6636 4.68152 56.2971 5.71444C56.8942 6.74046 57.2001 7.91129 57.1816 9.09973C57.2222 10.1612 56.9509 11.2112 56.4016 12.1187C55.9537 12.8455 55.3682 13.4769 54.6782 13.977C54.1327 14.3671 53.5467 14.6966 52.9306 14.96H52.8931V15.4986C53.5737 15.494 54.2421 15.6806 54.8229 16.0373ZM51.5127 13.7346C52.2637 13.4113 52.9125 12.8879 53.389 12.2211C53.8837 11.4937 54.1344 10.6266 54.1046 9.74608C54.1313 8.87686 53.8805 8.02185 53.389 7.30609C52.9131 6.63929 52.2641 6.11666 51.5127 5.79523C50.729 5.45287 49.8827 5.27859 49.0281 5.28353H41.1265V14.2409H49.0281C49.8822 14.2463 50.7282 14.074 51.5127 13.7346Z" fill="#273F2B"/>
<path id="Vector_2" d="M63.7914 23.4093C64.1813 24.3763 64.8308 25.2154 65.6676 25.8331C66.5307 26.4903 67.643 26.8161 68.9966 26.8161C70.4252 26.8161 71.5857 26.466 72.481 25.7577C73.4252 24.9715 74.1132 23.919 74.4563 22.736H77.461C77.0331 24.5361 76.0913 26.1714 74.7512 27.441C73.3985 28.7391 71.4928 29.3881 69.0341 29.3881C67.0256 29.3881 65.3638 28.915 64.0487 27.9688C62.7563 27.0561 61.7509 25.7908 61.1513 24.3223C60.5397 22.8488 60.2263 21.2677 60.2293 19.6712C60.2305 18.0941 60.5477 16.5334 61.162 15.0821C61.7687 13.6251 62.7732 12.3703 64.0594 11.4625C65.3764 10.5163 67.0381 10.0441 69.0448 10.0459C71.0247 10.0459 72.6865 10.5118 74.0302 11.4436C75.361 12.3697 76.3874 13.6729 76.9785 15.1871C77.6184 16.8344 77.8999 18.6003 77.804 20.3661H63.1374C63.1809 21.4105 63.4021 22.4398 63.7914 23.4093ZM65.9544 13.4447C65.1397 13.9836 64.4784 14.7261 64.0353 15.5992C63.5856 16.4709 63.3046 17.4204 63.2071 18.3974H74.8316C74.7485 17.4562 74.4807 16.5408 74.0436 15.7042C73.5842 14.8154 72.9118 14.0555 72.087 13.4931C71.175 12.8831 70.097 12.5726 69.0019 12.6044C67.9267 12.5723 66.8667 12.866 65.9598 13.4474L65.9544 13.4447Z" fill="#273F2B"/>
<path id="Vector_3" d="M95.1166 23.4308C95.1363 24.5496 94.8074 25.6466 94.1758 26.5683C93.5144 27.5044 92.6015 28.2321 91.5437 28.6663C89.0527 29.65 86.2833 29.65 83.7923 28.6663C82.7345 28.2326 81.8169 27.5129 81.1415 26.5871C80.4966 25.6781 80.1601 24.5846 80.1819 23.4685H83.0391C83.0275 23.9679 83.1448 24.4619 83.3797 24.9022C83.6146 25.3426 83.9589 25.7143 84.3793 25.9812C85.2441 26.5503 86.3412 26.834 87.6707 26.8322C88.3913 26.8357 89.1075 26.7201 89.7908 26.4902C90.4263 26.2824 90.9928 25.9033 91.4285 25.3941C91.8624 24.8647 92.0892 24.1944 92.0664 23.5089C92.087 23.1788 92.0412 22.8478 91.9316 22.5359C91.822 22.2241 91.6508 21.9376 91.4285 21.6937C90.9812 21.2548 90.4264 20.9426 89.8203 20.7888C88.9381 20.5679 88.0429 20.4033 87.14 20.2959C85.9975 20.1868 84.8649 19.9905 83.7521 19.7088C82.8904 19.4782 82.1092 19.0121 81.4952 18.3623C80.8681 17.7069 80.5545 16.7616 80.5545 15.5264C80.5333 14.4832 80.8504 13.4614 81.4577 12.6151C82.1012 11.7522 82.9747 11.0902 83.9772 10.7056C86.3838 9.82598 89.0219 9.82598 91.4285 10.7056C92.431 11.0902 93.3045 11.7522 93.948 12.6151C94.5553 13.4614 94.8724 14.4832 94.8512 15.5264V15.8307H91.994V15.5264C92.0093 15.0839 91.9012 14.6459 91.6819 14.2619C91.4626 13.8779 91.1409 13.5631 90.753 13.353C89.8343 12.8389 88.7942 12.5839 87.743 12.6151C86.7221 12.588 85.7133 12.8433 84.8269 13.353C84.4467 13.5608 84.1312 13.8704 83.9155 14.2473C83.6998 14.6243 83.5922 15.054 83.6047 15.4887C83.5896 15.7414 83.6298 15.9943 83.7224 16.2297C83.815 16.4651 83.9578 16.6773 84.1407 16.8514C84.5504 17.2018 85.042 17.4419 85.5693 17.5489C86.159 17.689 86.9282 17.8183 87.8824 17.9475C89.1206 18.1005 90.3467 18.3398 91.5518 18.6639C92.5127 18.9357 93.3812 19.4665 94.0632 20.199C94.7655 20.9405 95.1166 22.0178 95.1166 23.4308Z" fill="#273F2B"/>
<path id="Vector_4" d="M121.868 2.48535V28.9455H118.783V2.48535H121.868Z" fill="#273F2B"/>
<path id="Vector_5" d="M134.321 23.6159L139.25 10.5029H142.324L135.589 28.951H131.236L124.503 10.5029H127.583L132.514 23.6159C132.814 24.4389 133.041 25.287 133.192 26.1501H133.683C133.809 25.2857 134.023 24.4366 134.321 23.6159Z" fill="#273F2B"/>
<path id="Vector_6" d="M146.983 23.409C147.374 24.3754 148.023 25.2143 148.859 25.8329C149.722 26.49 150.834 26.8159 152.188 26.8159C153.617 26.8159 154.777 26.4658 155.672 25.7575C156.617 24.9712 157.305 23.9187 157.648 22.7358H160.658C160.23 24.5358 159.288 26.1711 157.948 27.4407C156.595 28.7388 154.69 29.3878 152.231 29.3878C150.222 29.3878 148.561 28.9147 147.245 27.9685C145.953 27.0559 144.948 25.7905 144.348 24.322C143.737 22.8485 143.423 21.2674 143.426 19.671C143.424 18.0946 143.737 16.5339 144.348 15.0818C144.956 13.6278 145.96 12.3759 147.245 11.4703C148.561 10.5241 150.222 10.0519 152.231 10.0537C154.213 10.0537 155.874 10.5196 157.216 11.4515C158.548 12.3768 159.574 13.6802 160.165 15.1949C160.806 16.8418 161.088 18.6081 160.99 20.3739H146.323C146.372 21.4156 146.595 22.4417 146.983 23.409ZM149.146 13.4444C148.331 13.9834 147.67 14.7258 147.227 15.5989C146.777 16.4706 146.496 17.4201 146.399 18.3971H158.026C157.936 17.455 157.663 16.5399 157.222 15.7039C156.762 14.8151 156.09 14.0552 155.265 13.4929C154.353 12.8828 153.275 12.5723 152.18 12.6041C151.107 12.5737 150.05 12.8673 149.146 13.4471V13.4444Z" fill="#273F2B"/>
<path id="Vector_7" d="M175.407 10.5035V13.2963C173.776 13.2963 172.422 13.6679 171.344 14.4112C170.3 15.1119 169.483 16.1043 168.994 17.266C168.501 18.4374 168.251 19.6974 168.259 20.969V28.9461H165.174V13.8268C165.186 13.7533 165.181 13.678 165.158 13.6072C165.135 13.5363 165.096 13.4718 165.044 13.4192C164.991 13.3665 164.927 13.3272 164.857 13.3044C164.786 13.2816 164.711 13.2761 164.638 13.2882H162.802V10.5035H166.528C166.899 10.4935 167.261 10.6221 167.543 10.8643C167.678 10.9773 167.785 11.1193 167.857 11.2797C167.929 11.4402 167.964 11.6149 167.959 11.7908C167.895 13.3015 167.716 14.8051 167.423 16.2883H167.959C168.25 15.1974 168.755 14.1756 169.444 13.2828C170.116 12.433 170.972 11.7479 171.947 11.2791C173.031 10.77 174.212 10.5053 175.407 10.5035Z" fill="#273F2B"/>
<path id="Vector_8" d="M15.9237 32C12.7743 32 9.69562 31.0616 7.07698 29.3035C4.45834 27.5454 2.41736 25.0466 1.21213 22.1229C0.00689954 19.1993 -0.308443 15.9823 0.305977 12.8786C0.920397 9.77487 2.43698 6.92394 4.66395 4.6863C6.89092 2.44866 9.72826 0.924806 12.8172 0.307443C15.9061 -0.309921 19.1078 0.00693259 22.0175 1.21793C24.9271 2.42894 27.4141 4.4797 29.1638 7.11088C30.9135 9.74207 31.8474 12.8355 31.8474 16C31.8425 20.2419 30.1632 24.3087 27.178 27.3082C24.1928 30.3077 20.1454 31.995 15.9237 32ZM15.9237 3.75156C13.5128 3.75156 11.1559 4.46992 9.15129 5.8158C7.14665 7.16167 5.58422 9.07462 4.66159 11.3127C3.73895 13.5508 3.49755 16.0136 3.9679 18.3896C4.43826 20.7655 5.59925 22.948 7.30406 24.661C9.00887 26.3739 11.1809 27.5405 13.5456 28.0131C15.9102 28.4857 18.3612 28.2431 20.5886 27.3161C22.8161 26.389 24.7199 24.8191 26.0594 22.8049C27.3988 20.7906 28.1138 18.4225 28.1138 16C28.1102 12.7526 26.8248 9.63924 24.5395 7.34299C22.2542 5.04673 19.1556 3.75513 15.9237 3.75156Z" fill="#78EB54"/>
<path id="Vector_9" d="M15.9237 7.28516L16.6688 12.9623C16.7447 13.5427 17.0092 14.0817 17.4211 14.4956C17.8331 14.9095 18.3695 15.1752 18.9471 15.2515L24.5972 16.0002L18.9471 16.7489C18.3695 16.8251 17.8331 17.0909 17.4211 17.5048C17.0092 17.9187 16.7447 18.4577 16.6688 19.0381L15.9237 24.7152L15.1786 19.0381C15.1027 18.4577 14.8383 17.9187 14.4263 17.5048C14.0144 17.0909 13.4779 16.8251 12.9003 16.7489L7.25024 16.0002L12.9003 15.2515C13.4779 15.1752 14.0144 14.9095 14.4263 14.4956C14.8383 14.0817 15.1027 13.5427 15.1786 12.9623L15.9237 7.28516Z" fill="#78EB54"/>
<path id="Vector_10" d="M106.711 29.304C104.827 29.3046 102.985 28.7437 101.418 27.6923C99.8513 26.6409 98.6299 25.1462 97.9085 23.3973C97.1871 21.6484 96.9981 19.7238 97.3653 17.8669C97.7326 16.0101 98.6396 14.3044 99.9717 12.9655C101.304 11.6266 103.001 10.7148 104.849 10.3452C106.697 9.97571 108.612 10.1651 110.353 10.8895C112.094 11.6138 113.582 12.8406 114.629 14.4147C115.676 15.9888 116.234 17.8394 116.234 19.7326C116.231 22.2698 115.227 24.7022 113.442 26.4965C111.657 28.2908 109.236 29.3005 106.711 29.304ZM106.711 13.0697C105.399 13.0692 104.116 13.4597 103.025 14.192C101.933 14.9242 101.083 15.9652 100.58 17.1832C100.078 18.4013 99.9461 19.7418 100.202 21.035C100.458 22.3282 101.09 23.5162 102.018 24.4485C102.946 25.3809 104.128 26.0158 105.415 26.2729C106.702 26.53 108.036 26.3978 109.248 25.8929C110.461 25.3881 111.497 24.5333 112.225 23.4368C112.954 22.3402 113.343 21.0511 113.342 19.7326C113.34 17.9661 112.641 16.2727 111.398 15.0236C110.155 13.7745 108.469 13.0719 106.711 13.0697Z" fill="#273F2B"/>
</g>
</g>
</g>
<defs>
<clipPath id="clip0_3137_3519">
<rect width="175.407" height="32" fill="white"/>
</clipPath>
</defs>
</svg>
