<svg width="45" height="44" viewBox="0 0 45 44" fill="none" xmlns="http://www.w3.org/2000/svg">
<path d="M40.7917 22.9167C40.7917 22.0158 40.7819 20.198 40.7627 19.2946C40.643 13.6744 40.583 10.8643 38.5094 8.78272C36.4355 6.70109 33.5495 6.62859 27.7772 6.48355C24.2196 6.39416 20.697 6.39416 17.1395 6.48353C11.3673 6.62855 8.48115 6.70106 6.40741 8.7827C4.33367 10.8643 4.27376 13.6744 4.15389 19.2946C4.11536 21.1017 4.11538 22.898 4.15391 24.7051C4.27376 30.3254 4.33369 33.1353 6.40743 35.2171C8.48115 37.2986 11.3673 37.3711 17.1395 37.5161C18.6112 37.5531 20.077 37.5747 21.5417 37.5812" stroke="#FAFAFA" stroke-width="2.75" stroke-linecap="round" stroke-linejoin="round"/>
<path d="M13.2915 15.5835L18.6852 18.7724C21.8297 20.6316 23.0866 20.6316 26.2312 18.7724L31.6248 15.5835" stroke="#FAFAFA" stroke-width="2.75" stroke-linecap="round" stroke-linejoin="round"/>
<path d="M26.125 32.0833H40.7917M26.125 32.0833C26.125 30.7996 29.7812 28.4011 30.7083 27.5M26.125 32.0833C26.125 33.367 29.7812 35.7656 30.7083 36.6667" stroke="#FAFAFA" stroke-width="2.75" stroke-linecap="round" stroke-linejoin="round"/>
</svg>
