<svg width="104" height="101" viewBox="0 0 104 101" fill="none" xmlns="http://www.w3.org/2000/svg">
<g opacity="0.180327">
<path d="M65.2339 3.00643C65.2339 4.66691 63.8877 6.01306 62.2274 6.01306C60.5669 6.01306 59.2208 4.66691 59.2208 3.00643C59.2208 1.34605 60.5669 0 62.2274 0C63.8877 0 65.2339 1.34605 65.2339 3.00643Z" fill="#00B74A"/>
</g>
<g opacity="0.451315">
<path d="M41.5692 10.0983L39.7837 11.1292C39.4604 11.3159 39.0471 11.205 38.8604 10.8818L35.6364 5.29757C35.4497 4.97438 35.5605 4.56106 35.8837 4.3745L37.6693 3.34356C37.9925 3.15699 38.4058 3.26771 38.5925 3.5909L41.8165 9.17517C42.0032 9.49846 41.8924 9.91168 41.5692 10.0983Z" fill="#DF443D"/>
</g>
<g opacity="0.451315">
<path d="M11.465 22.2334L11.8666 22.3697C12.3219 22.5241 12.8242 22.4445 13.2097 22.1569L13.5496 21.9032C14.5201 21.1789 15.9001 21.882 15.8846 23.093L15.8792 23.517C15.873 23.9979 16.1038 24.451 16.4964 24.7287L16.8428 24.9736C17.8315 25.6729 17.5892 27.2023 16.4328 27.5619L16.0277 27.6878C15.5685 27.8305 15.2091 28.1901 15.0664 28.6494L14.9404 29.0544C14.5809 30.2108 13.0514 30.4531 12.3521 29.4643L12.1071 29.118C11.8294 28.7254 11.3763 28.4945 10.8955 28.5007L10.4714 28.506C9.26045 28.5215 8.55743 27.1418 9.28172 26.1711L9.53547 25.8312C9.8231 25.4458 9.90259 24.9436 9.74814 24.4881L9.61191 24.0865C9.22302 22.9395 10.318 21.8445 11.465 22.2334Z" fill="#00B74A"/>
</g>
<g opacity="0.451315">
<path d="M8.61724 43.5252L9.06819 45.537C9.14985 45.9012 8.92083 46.2627 8.55656 46.3443L2.26464 47.7547C1.90047 47.8363 1.53906 47.6073 1.4573 47.2431L1.00635 45.2312C0.924792 44.867 1.15381 44.5056 1.51798 44.424L7.81 43.0136C8.17417 42.932 8.53558 43.161 8.61724 43.5252Z" fill="#4683F5"/>
</g>
<g opacity="0.451315">
<path d="M15.0044 69.2652C15.0044 70.9256 13.6583 72.2717 11.9979 72.2717C10.3375 72.2717 8.99152 70.9256 8.99152 69.2652C8.99152 67.6048 10.3375 66.2588 11.9979 66.2588C13.6583 66.2588 15.0044 67.6048 15.0044 69.2652Z" fill="#F9C033"/>
</g>
<g opacity="0.451315">
<path d="M11.465 84.0684L11.8666 84.2047C12.3219 84.359 12.8242 84.2795 13.2097 83.9919L13.5496 83.7381C14.5201 83.0139 15.9001 83.717 15.8846 84.928L15.8792 85.352C15.873 85.8329 16.1038 86.286 16.4964 86.5637L16.8428 86.8085C17.8315 87.5079 17.5892 89.0373 16.4328 89.3969L16.0277 89.5228C15.5685 89.6655 15.2091 90.0251 15.0664 90.4844L14.9404 90.8893C14.5809 92.0458 13.0514 92.2881 12.3521 91.2993L12.1071 90.953C11.8294 90.5603 11.3763 90.3295 10.8955 90.3356L10.4714 90.3411C9.26045 90.3566 8.55743 88.9768 9.28172 88.0062L9.53547 87.6662C9.8231 87.2807 9.90259 86.7786 9.74814 86.3231L9.61191 85.9215C9.22302 84.7745 10.318 83.6795 11.465 84.0684Z" fill="#4782F9"/>
</g>
<g opacity="0.451315">
<path d="M88.8511 19.3687C87.9401 18.1813 88.2221 16.4124 89.4761 15.4503C90.7301 14.4881 92.5118 14.6734 93.4229 15.8608C93.4247 15.8631 93.4262 15.8654 93.428 15.8675" stroke="#00B74A" stroke-width="1.37128" stroke-linecap="round" stroke-linejoin="round"/>
</g>
<g opacity="0.451315">
<path d="M96.9607 35.7481L97.3623 35.8843C97.8177 36.0388 98.32 35.9592 98.7054 35.6715L99.0454 35.4179C100.016 34.6936 101.396 35.3966 101.38 36.6076L101.375 37.0317C101.369 37.5126 101.6 37.9657 101.992 38.2434L102.339 38.4883C103.327 39.1875 103.085 40.717 101.929 41.0765L101.523 41.2024C101.064 41.3452 100.705 41.7048 100.562 42.164L100.436 42.5691C100.077 43.7255 98.5471 43.9677 97.8479 42.9789L97.603 42.6327C97.3253 42.2401 96.8722 42.0092 96.3913 42.0154L95.9672 42.0208C94.7563 42.0362 94.0532 40.6564 94.7776 39.6859L95.0312 39.3459C95.3188 38.9605 95.3984 38.4582 95.2439 38.0027L95.1076 37.6011C94.7187 36.4542 95.8137 35.3592 96.9607 35.7481Z" fill="#FFBB31"/>
</g>
<g opacity="0.451315">
<path d="M99.7662 71.3779C101.811 71.6471 103.259 73.6453 102.975 75.8042C102.69 77.9632 100.774 79.5183 98.7299 79.249C98.7259 79.2485 98.7221 79.248 98.7183 79.2475" stroke="#DE3E3E" stroke-width="1.02846" stroke-linecap="round" stroke-linejoin="round"/>
</g>
<g opacity="0.451315">
<path d="M93.3286 96.742L91.543 97.7728C91.2198 97.9594 90.8065 97.8487 90.6199 97.5255L87.3958 91.9413C87.2092 91.6179 87.32 91.2047 87.6431 91.0181L89.4287 89.9872C89.7519 89.8005 90.1652 89.9112 90.3518 90.2345L93.5759 95.8188C93.7625 96.142 93.6518 96.5553 93.3286 96.742Z" fill="#4683F5"/>
</g>
<g opacity="0.451315">
<path d="M34.8163 100C33.561 98.3645 33.9496 95.9275 35.6773 94.602C37.405 93.2763 39.8595 93.5317 41.1147 95.1676L41.1219 95.1768" stroke="#00B74A" stroke-width="1.37128" stroke-linecap="round" stroke-linejoin="round"/>
</g>
<g opacity="0.2">
<path d="M80.6926 49.7289C80.6926 65.9066 67.7304 79.0214 51.7407 79.0214C35.7511 79.0214 22.7889 65.9066 22.7889 49.7289C22.7889 33.5511 35.7511 20.4365 51.7407 20.4365C67.7304 20.4365 80.6926 33.5511 80.6926 49.7289Z" fill="#00B74A"/>
</g>
<g opacity="0.2">
<path d="M88.8672 49.8249C88.8672 70.5705 72.2451 87.3882 51.7407 87.3882C31.2364 87.3882 14.6143 70.5705 14.6143 49.8249C14.6143 29.0793 31.2364 12.2617 51.7407 12.2617C72.2451 12.2617 88.8672 29.0793 88.8672 49.8249Z" fill="#00B74A"/>
</g>
<path d="M71.8367 49.7286C71.8367 61.0153 62.687 70.1652 51.4001 70.1652C40.1133 70.1652 30.9635 61.0153 30.9635 49.7286C30.9635 38.4417 40.1133 29.292 51.4001 29.292C62.687 29.292 71.8367 38.4417 71.8367 49.7286Z" fill="#00B74A"/>
<path d="M41.863 49.4081L48.2807 55.8258L61.1906 42.916" stroke="white" stroke-width="3.31607" stroke-linecap="round" stroke-linejoin="round"/>
</svg>
