<svg width="51" height="50" viewBox="0 0 51 50" fill="none" xmlns="http://www.w3.org/2000/svg">
<path d="M10.4442 29.9344L14.5132 27.045C15.661 26.23 16.8247 25.6838 18.1524 25.3302C19.6767 24.9242 20.36 24.0925 20.36 22.3146C20.36 17.8048 30.7767 17.3249 30.7767 22.3146C30.7767 24.0925 31.46 24.9242 32.9844 25.3302C34.3225 25.6865 35.4848 26.2363 36.6236 27.045L40.6925 29.9344C42.5338 31.2419 43.3907 31.874 43.8688 32.879C44.3184 33.8246 44.3184 34.9333 44.3184 37.1508C44.3184 41.1377 44.3184 43.1313 43.2021 44.4092C41.85 45.9569 38.335 45.824 36.1761 45.824H14.9607C12.8016 45.824 9.35813 46.0388 7.93461 44.4092C6.81836 43.1313 6.81836 41.1377 6.81836 37.1508C6.81836 34.9333 6.81836 33.8246 7.26803 32.879C7.74598 31.874 8.60298 31.2419 10.4442 29.9344Z" stroke="#FAFAFA" stroke-width="3.125"/>
<path d="M29.735 35.4167C29.735 37.7179 27.8696 39.5833 25.5683 39.5833C23.2671 39.5833 21.4017 37.7179 21.4017 35.4167C21.4017 33.1154 23.2671 31.25 25.5683 31.25C27.8696 31.25 29.735 33.1154 29.735 35.4167Z" stroke="#FAFAFA" stroke-width="3.125"/>
<path d="M15.0687 7.70358C12.3219 8.48781 10.3472 9.46066 8.54015 10.6345C5.67917 12.4929 4.45261 15.8417 4.78936 19.0732C4.9317 20.4389 6.02805 21.0919 7.2994 20.7386C8.26528 20.4702 9.23272 20.209 10.1926 19.9242C12.9998 19.0916 13.66 18.0794 14.0501 15.2059L15.0687 7.70358ZM15.0687 7.70358C21.8571 5.76547 29.2796 5.76547 36.0682 7.70358M36.0682 7.70358C38.8148 8.48781 40.7896 9.46066 42.5965 10.6345C45.4575 12.4929 46.6842 15.8417 46.3473 19.0732C46.205 20.4389 45.1088 21.0919 43.8373 20.7386C42.8715 20.4702 41.904 20.209 40.9442 19.9242C38.1369 19.0916 37.4767 18.0794 37.0867 15.2059L36.0682 7.70358Z" stroke="#FAFAFA" stroke-width="3.125" stroke-linejoin="round"/>
</svg>
