<svg width="45" height="44" viewBox="0 0 45 44" fill="none" xmlns="http://www.w3.org/2000/svg">
<path d="M31.193 21.6417C31.193 21.008 31.193 20.6912 31.2883 20.4088C31.5655 19.5882 32.2963 19.27 33.0283 18.9365C33.8513 18.5616 34.2627 18.3742 34.6705 18.3412C35.1334 18.3038 35.597 18.4035 35.9927 18.6255C36.5172 18.9198 36.8829 19.4791 37.2575 19.934C38.987 22.0346 39.8516 23.0851 40.1681 24.2434C40.4235 25.1781 40.4235 26.1556 40.1681 27.0902C39.7066 28.7796 38.2486 30.1959 37.1693 31.5067C36.6173 32.1772 36.3412 32.5125 35.9927 32.7081C35.597 32.9301 35.1334 33.0299 34.6705 32.9925C34.2627 32.9595 33.8513 32.7721 33.0283 32.3972C32.2963 32.0637 31.5655 31.7454 31.2883 30.9248C31.193 30.6425 31.193 30.3257 31.193 29.6919V21.6417Z" stroke="#FAFAFA" stroke-width="2.75"/>
<path d="M12.8597 21.6419C12.8597 20.844 12.8373 20.1268 12.1922 19.5658C11.9575 19.3618 11.6465 19.22 11.0243 18.9366C10.2013 18.5619 9.78985 18.3745 9.38212 18.3415C8.15883 18.2425 7.50068 19.0774 6.79523 19.9343C5.0657 22.0349 4.20094 23.0853 3.8845 24.2436C3.62916 25.1784 3.62916 26.1559 3.8845 27.0905C4.34603 28.78 5.80411 30.196 6.88338 31.507C7.56369 32.3333 8.21357 33.0872 9.38212 32.9928C9.78985 32.9598 10.2013 32.7722 11.0243 32.3975C11.6465 32.1141 11.9575 31.9723 12.1922 31.7683C12.8373 31.2073 12.8597 30.4903 12.8597 29.6922V21.6419Z" stroke="#FAFAFA" stroke-width="2.75"/>
<path d="M36.6931 19.2498V16.4998C36.6931 9.41219 30.1266 3.6665 22.0264 3.6665C13.9262 3.6665 7.35974 9.41219 7.35974 16.4998V19.2498" stroke="#FAFAFA" stroke-width="2.75" stroke-linecap="round" stroke-linejoin="round"/>
<path d="M36.693 32.0835C36.693 40.3335 29.3597 40.3335 22.0264 40.3335" stroke="#FAFAFA" stroke-width="2.75" stroke-linecap="round" stroke-linejoin="round"/>
</svg>
